<svg xmlns="http://www.w3.org/2000/svg" viewBox="0 0 64 64">
  <title>MSM</title>
  <defs>
    <linearGradient id="bg" x1="12" x2="52" y1="8" y2="56" gradientUnits="userSpaceOnUse">
      <stop stop-color="#ffffff"/>
      <stop offset="1" stop-color="#f2f6fb"/>
    </linearGradient>
    <filter id="shadow" x="-12" y="-10" width="88" height="88" color-interpolation-filters="sRGB">
      <feDropShadow dx="0" dy="4" stdDeviation="4" flood-color="#142033" flood-opacity=".22"/>
    </filter>
  </defs>
  <rect width="64" height="64" rx="16" fill="#182433"/>
  <g filter="url(#shadow)">
    <rect x="9" y="8" width="46" height="48" rx="12" fill="url(#bg)"/>
    <path fill="#172332" d="M18 42V22h6l8 10.4L40 22h6v20h-6V31.5l-6.4 8h-3.2l-6.4-8V42z"/>
    <rect x="15" y="14" width="10" height="4" rx="2" fill="#f4a261"/>
    <rect x="27" y="14" width="10" height="4" rx="2" fill="#7aa7d9"/>
    <rect x="39" y="14" width="10" height="4" rx="2" fill="#e98b8b"/>
    <path fill="none" stroke="#0a7cff" stroke-linecap="round" stroke-linejoin="round" stroke-width="4" d="M17 49l9-7 7 4 13-13"/>
    <circle cx="46" cy="33" r="3" fill="#0a7cff"/>
  </g>
</svg>
